<svg width="213" height="64" viewBox="0 0 213 64" fill="none" xmlns="http://www.w3.org/2000/svg">
<path d="M204.635 63.2283H8.92641C4.39827 63.2283 0.727539 59.6763 0.727539 55.2929V8.7368C0.727539 4.35448 4.39827 0.80249 8.92641 0.80249H204.635C209.163 0.80249 212.833 4.35448 212.833 8.7368V55.2929C212.833 59.6763 209.163 63.2283 204.635 63.2283Z" fill="black"/>
<path d="M70.2408 38.5104H73.1989V45.0051C72.3332 45.6714 71.3228 46.1843 70.1687 46.5401C69.0141 46.8975 67.8276 47.0759 66.6092 47.0759C64.8932 47.0759 63.3468 46.7148 61.9677 45.9936C60.5885 45.2719 59.5066 44.2754 58.7212 43.0035C57.9354 41.7311 57.543 40.2952 57.543 38.6974C57.543 37.0995 57.9354 35.6636 58.7212 34.3917C59.5066 33.1193 60.5929 32.1212 61.9798 31.4001C63.3666 30.6789 64.9257 30.3173 66.6576 30.3173C68.0681 30.3173 69.3509 30.5436 70.505 30.9926C71.6596 31.4437 72.6293 32.102 73.4151 32.9707L71.4433 34.8333C70.1605 33.5923 68.6135 32.9707 66.8018 32.9707C65.6147 32.9707 64.5608 33.212 63.639 33.6935C62.7172 34.175 61.9957 34.8498 61.4746 35.7179C60.9534 36.5866 60.6931 37.5794 60.6931 38.6974C60.6931 39.7828 60.9534 40.7602 61.4746 41.6305C61.9957 42.4986 62.7172 43.182 63.639 43.6784C64.5608 44.1747 65.607 44.4229 66.7776 44.4229C68.0918 44.4229 69.2464 44.1433 70.2408 43.5841V38.5104Z" fill="white"/>
<path d="M85.5353 43.4452C86.2568 42.732 86.6178 41.7925 86.6178 40.6282C86.6178 39.465 86.2568 38.527 85.5353 37.8128C84.8138 37.0996 83.9002 36.7423 82.7935 36.7423C81.6873 36.7423 80.7771 37.0996 80.0639 37.8128C79.3506 38.527 78.994 39.465 78.994 40.6282C78.994 41.7925 79.3506 42.732 80.0639 43.4452C80.7771 44.1594 81.6873 44.5157 82.7935 44.5157C83.9002 44.5157 84.8138 44.1594 85.5353 43.4452ZM79.2824 46.1913C78.24 45.6486 77.4267 44.8917 76.8416 43.9224C76.2561 42.953 75.9639 41.8553 75.9639 40.6282C75.9639 39.4037 76.2561 38.3087 76.8416 37.3478C77.4267 36.3849 78.24 35.6323 79.2824 35.0896C80.3247 34.5468 81.4947 34.2741 82.7935 34.2741C84.1083 34.2741 85.2865 34.5468 86.3289 35.0896C87.3706 35.6323 88.1846 36.3849 88.7701 37.3478C89.3551 38.3087 89.6479 39.4037 89.6479 40.6282C89.6479 41.8553 89.3551 42.953 88.7701 43.9224C88.1846 44.8917 87.3706 45.6486 86.3289 46.1913C85.2865 46.7351 84.1083 47.0067 82.7935 47.0067C81.4947 47.0067 80.3247 46.7351 79.2824 46.1913Z" fill="white"/>
<path d="M101.046 43.4452C101.768 42.732 102.128 41.7925 102.128 40.6282C102.128 39.465 101.768 38.527 101.046 37.8128C100.325 37.0996 99.4104 36.7423 98.3048 36.7423C97.1986 36.7423 96.2884 37.0996 95.5751 37.8128C94.8614 38.527 94.5047 39.465 94.5047 40.6282C94.5047 41.7925 94.8614 42.732 95.5751 43.4452C96.2884 44.1594 97.1986 44.5157 98.3048 44.5157C99.4104 44.5157 100.325 44.1594 101.046 43.4452ZM94.7937 46.1913C93.7513 45.6486 92.9379 44.8917 92.3524 43.9224C91.7668 42.953 91.4746 41.8553 91.4746 40.6282C91.4746 39.4037 91.7668 38.3087 92.3524 37.3478C92.9379 36.3849 93.7513 35.6323 94.7937 35.0896C95.8355 34.5468 97.0055 34.2741 98.3048 34.2741C99.619 34.2741 100.798 34.5468 101.84 35.0896C102.882 35.6323 103.695 36.3849 104.281 37.3478C104.866 38.3087 105.159 39.4037 105.159 40.6282C105.159 41.8553 104.866 42.953 104.281 43.9224C103.695 44.8917 102.882 45.6486 101.84 46.1913C100.798 46.7351 99.619 47.0067 98.3048 47.0067C97.0055 47.0067 95.8355 46.7351 94.7937 46.1913Z" fill="white"/>
<path d="M116.739 42.829C117.469 42.1691 117.833 41.3116 117.833 40.2559C117.833 39.2168 117.469 38.3716 116.739 37.7202C116.009 37.0682 115.075 36.7423 113.936 36.7423C112.782 36.7423 111.84 37.0682 111.112 37.7202C110.382 38.3716 110.017 39.2168 110.017 40.2559C110.017 41.3116 110.382 42.1691 111.112 42.829C111.84 43.4873 112.782 43.8175 113.936 43.8175C115.075 43.8175 116.009 43.4873 116.739 42.829ZM120.79 34.4148V44.9589C120.79 49.3343 118.483 51.5212 113.864 51.5212C112.631 51.5212 111.459 51.3699 110.354 51.0669C109.248 50.7644 108.334 50.3265 107.612 49.7529L108.959 47.5644C109.52 48.0145 110.229 48.3756 111.087 48.6467C111.944 48.9183 112.815 49.0547 113.697 49.0547C115.107 49.0547 116.141 48.7436 116.799 48.1231C117.456 47.5032 117.786 46.5567 117.786 45.2832V44.6329C117.271 45.1757 116.647 45.5874 115.909 45.8654C115.172 46.145 114.362 46.2851 113.48 46.2851C112.261 46.2851 111.16 46.0332 110.173 45.5288C109.187 45.0239 108.409 44.3139 107.84 43.3989C107.271 42.4828 106.986 41.4357 106.986 40.2559C106.986 39.0778 107.271 38.0333 107.84 37.1268C108.409 36.2187 109.187 35.5168 110.173 35.0204C111.16 34.524 112.261 34.2742 113.48 34.2742C114.41 34.2742 115.255 34.4228 116.017 34.7173C116.778 35.0118 117.416 35.4619 117.929 36.0675V34.4148H120.79Z" fill="white"/>
<path d="M124.734 29.5742H127.74V46.8441H124.734V29.5742Z" fill="white"/>
<path d="M134.823 37.4283C134.157 37.979 133.753 38.7124 133.608 39.629H140.895C140.766 38.7289 140.375 37.9993 139.717 37.4405C139.059 36.8813 138.242 36.6017 137.264 36.6017C136.302 36.6017 135.488 36.8786 134.823 37.4283ZM143.709 41.5598H133.632C133.808 42.4759 134.27 43.2013 135.016 43.7355C135.761 44.2713 136.687 44.5387 137.792 44.5387C139.204 44.5387 140.366 44.0886 141.281 43.189L142.891 44.9818C142.315 45.6486 141.585 46.153 140.703 46.4939C139.821 46.8363 138.826 47.0068 137.721 47.0068C136.31 47.0068 135.068 46.7351 133.993 46.1914C132.919 45.6486 132.089 44.8918 131.505 43.9224C130.919 42.9531 130.627 41.8554 130.627 40.6282C130.627 39.4187 130.91 38.3279 131.481 37.3585C132.048 36.3892 132.839 35.6323 133.849 35.0896C134.859 34.5469 135.998 34.2742 137.264 34.2742C138.515 34.2742 139.633 34.5431 140.619 35.0773C141.605 35.6132 142.374 36.3657 142.927 37.3356C143.48 38.306 143.757 39.4272 143.757 40.6991C143.757 40.9009 143.741 41.1875 143.709 41.5598Z" fill="white"/>
<path d="M163.453 38.7438C164.157 38.1851 164.511 37.3857 164.511 36.3471C164.511 35.3063 164.157 34.5074 163.453 33.9487C162.747 33.3911 161.713 33.1115 160.351 33.1115H156.695V39.5811H160.351C161.713 39.5811 162.747 39.3015 163.453 38.7438ZM164.306 31.2489C165.389 31.7149 166.218 32.3818 166.796 33.2505C167.372 34.1202 167.661 35.1514 167.661 36.3471C167.661 37.5263 167.372 38.5542 166.796 39.4298C166.218 40.3065 165.389 40.9787 164.306 41.4436C163.225 41.9086 161.954 42.1419 160.494 42.1419H156.695V46.8432H153.568V30.5507H160.494C161.954 30.5507 163.225 30.7839 164.306 31.2489Z" fill="white"/>
<path d="M170.739 29.5742H173.746V46.8441H170.739V29.5742Z" fill="white"/>
<path d="M184.194 44.3874C184.781 44.0545 185.193 43.5773 185.434 42.9557V41.5129H182.332C180.601 41.5129 179.734 42.0641 179.734 43.1656C179.734 43.6934 179.951 44.112 180.384 44.4231C180.816 44.7336 181.418 44.8875 182.187 44.8875C182.941 44.8875 183.61 44.7213 184.194 44.3874ZM186.936 35.5903C187.939 36.4669 188.44 37.7894 188.44 39.5577V46.8433H185.602V45.3307C185.233 45.8734 184.709 46.2894 184.027 46.5759C183.345 46.8619 182.524 47.0068 181.562 47.0068C180.601 47.0068 179.758 46.847 179.037 46.5296C178.316 46.2116 177.758 45.7685 177.366 45.2028C176.973 44.6356 176.775 43.9959 176.775 43.2828C176.775 42.1648 177.205 41.269 178.063 40.5941C178.92 39.9193 180.271 39.5811 182.115 39.5811H185.434V39.3958C185.434 38.5271 185.165 37.8592 184.629 37.3942C184.09 36.9276 183.293 36.696 182.235 36.696C181.514 36.696 180.805 36.8035 180.108 37.0219C179.409 37.2387 178.82 37.5412 178.339 37.9284L177.16 35.8113C177.834 35.3149 178.644 34.9341 179.59 34.671C180.536 34.4068 181.537 34.2742 182.596 34.2742C184.488 34.2742 185.935 34.7136 186.936 35.5903Z" fill="white"/>
<path d="M204.073 34.4152L198.06 47.8444C197.499 49.1941 196.817 50.1442 196.016 50.6955C195.214 51.2462 194.245 51.5216 193.106 51.5216C192.465 51.5216 191.831 51.4204 191.206 51.2191C190.582 51.0172 190.068 50.7376 189.667 50.3818L190.869 48.2396C191.158 48.5043 191.499 48.7126 191.892 48.8681C192.285 49.0236 192.681 49.1014 193.082 49.1014C193.611 49.1014 194.048 48.9693 194.393 48.7057C194.738 48.4415 195.055 47.9994 195.342 47.3795L195.559 46.89L189.956 34.4152H193.082L197.123 43.608L201.186 34.4152H204.073Z" fill="white"/>
<path d="M51.7656 31.2182L43.6839 26.7048L37.0381 32.9236L43.1121 38.6071L51.7656 33.772C52.2422 33.5063 52.5267 33.029 52.5267 32.4959C52.5267 31.9627 52.2422 31.4855 51.7656 31.2182Z" fill="#FFD109"/>
<path d="M42.313 25.939L33.4196 20.9703L13.9307 11.3044L35.9429 31.8984L42.313 25.939Z" fill="#06EF79"/>
<path d="M14.2529 54.239L33.4519 44.0017L41.7399 39.3728L35.9421 33.9476L14.2529 54.239Z" fill="#F93646"/>
<path d="M12.6293 12.139L12.6084 53.728L34.8463 32.9226L12.6293 12.139Z" fill="#05D5FB"/>
<path d="M66.0652 17.4104H63.8391V16.4533H67.1709V21.4364H66.0652V17.4104ZM62.9228 21.5078C62.2437 21.5078 61.6108 21.3645 61.0242 21.078C60.4375 20.792 59.9263 20.4074 59.4899 19.9233C59.0529 19.4407 58.7133 18.8954 58.4712 18.2898C58.2285 17.6842 58.1074 17.0584 58.1074 16.4107C58.1074 15.7348 58.2285 15.0936 58.4712 14.4885C58.7133 13.8829 59.0507 13.3455 59.4822 12.8768C59.9136 12.4076 60.4227 12.0396 61.0099 11.7711C61.5965 11.5038 62.2338 11.3701 62.9228 11.3701C63.9217 11.3701 64.7461 11.5719 65.396 11.9757C66.0454 12.3789 66.5352 12.9056 66.8649 13.5533L65.8616 14.2281C65.5606 13.6459 65.1484 13.2151 64.625 12.9328C64.1011 12.6515 63.5238 12.5099 62.8937 12.5099C62.3698 12.5099 61.8948 12.6191 61.4683 12.8342C61.0413 13.0499 60.6753 13.3429 60.3698 13.7141C60.0639 14.0848 59.8316 14.5045 59.6715 14.9737C59.5113 15.444 59.4315 15.9324 59.4315 16.4384C59.4315 16.9742 59.5207 17.4786 59.7006 17.9516C59.88 18.4261 60.1343 18.8432 60.464 19.2048C60.7936 19.5675 61.1772 19.8509 61.6136 20.057C62.05 20.2642 62.52 20.3664 63.0247 20.3664C63.6163 20.3664 64.1787 20.2221 64.712 19.9302C65.2453 19.6394 65.7499 19.1936 66.2254 18.5923V19.9025C65.2942 20.972 64.193 21.5078 62.9228 21.5078Z" fill="white"/>
<path d="M76.1749 20.3101V21.4361H69.1631V11.4406H76.0439V12.567H70.4723V15.8053H75.3169V16.8604H70.4723V20.3101H76.1749Z" fill="white"/>
<path d="M85.4133 12.567H81.8493V21.4361H80.5401V12.567H76.9756V11.4406H85.4133V12.567Z" fill="white"/>
<path d="M90.1416 21.4361V11.4406H91.4508V21.4361H90.1416Z" fill="white"/>
<path d="M95.2321 13.7777V21.4361H93.9229V11.4406H95.0285L101.342 19.2545V11.4544H102.652V21.4361H101.459L95.2321 13.7777Z" fill="white"/>
<path d="M109.46 16.4384C109.46 16.9455 109.545 17.436 109.715 17.9095C109.884 18.384 110.124 18.8037 110.435 19.1707C110.745 19.5361 111.119 19.828 111.555 20.0431C111.992 20.2588 112.477 20.3664 113.009 20.3664C113.563 20.3664 114.057 20.2546 114.494 20.0298C114.93 19.8035 115.301 19.5031 115.607 19.1281C115.911 18.7521 116.145 18.3308 116.304 17.8605C116.465 17.3913 116.545 16.9167 116.545 16.4384C116.545 15.9324 116.46 15.444 116.291 14.9737C116.12 14.5045 115.877 14.0848 115.564 13.7141C115.248 13.3429 114.875 13.0526 114.442 12.8412C114.011 12.6297 113.533 12.5248 113.009 12.5248C112.457 12.5248 111.962 12.6356 111.526 12.855C111.089 13.076 110.718 13.3743 110.412 13.7493C110.107 14.1258 109.871 14.5455 109.707 15.0094C109.542 15.4744 109.46 15.95 109.46 16.4384ZM112.995 21.5078C112.268 21.5078 111.609 21.3656 111.017 21.0849C110.425 20.8026 109.914 20.4208 109.481 19.9366C109.05 19.4541 108.718 18.9103 108.485 18.3047C108.253 17.6996 108.136 17.0776 108.136 16.4384C108.136 15.7727 108.26 15.1362 108.508 14.5306C108.754 13.925 109.098 13.3855 109.541 12.912C109.982 12.4374 110.497 12.0625 111.089 11.7861C111.68 11.5091 112.326 11.3701 113.024 11.3701C113.751 11.3701 114.411 11.516 115.003 11.8063C115.594 12.0982 116.103 12.487 116.53 12.9748C116.956 13.4632 117.286 14.0086 117.519 14.6084C117.753 15.2097 117.868 15.8248 117.868 16.4533C117.868 17.1202 117.747 17.755 117.505 18.3606C117.262 18.9662 116.92 19.5063 116.479 19.9792C116.038 20.4538 115.521 20.8271 114.93 21.0988C114.337 21.3715 113.694 21.5078 112.995 21.5078Z" fill="white"/>
<path d="M120.996 13.7777V21.4361H119.688V11.4406H120.793L127.107 19.2545V11.4544H128.415V21.4361H127.223L120.996 13.7777Z" fill="white"/>
</svg>
