<svg width="213" height="64" viewBox="0 0 213 64" fill="none" xmlns="http://www.w3.org/2000/svg">
<path d="M211.006 56.008C211.006 56.799 210.85 57.5822 210.547 58.3129C210.244 59.0436 209.8 59.7074 209.24 60.2664C208.68 60.8254 208.016 61.2687 207.285 61.5708C206.554 61.8729 205.77 62.028 204.979 62.0271H7.74098C6.14236 62.0288 4.60852 61.3956 3.4768 60.2669C2.34508 59.1381 1.70814 57.6062 1.70605 56.008V8.00696C1.70814 6.40804 2.34483 4.87529 3.47632 3.74528C4.60782 2.61526 6.14163 1.98033 7.74098 1.97992H204.977C205.769 1.97992 206.553 2.13582 207.284 2.43873C208.015 2.74164 208.68 3.18561 209.24 3.74529C209.799 4.30498 210.243 4.96941 210.546 5.70063C210.849 6.43185 211.004 7.21555 211.004 8.00696L211.006 56.008Z" fill="white"/>
<path d="M204.978 63.4277H7.74065C5.77133 63.4273 3.88261 62.6459 2.48891 61.2549C1.09522 59.8639 0.310388 57.977 0.306641 56.0083L0.306641 8.00881C0.309554 6.03904 1.09386 4.15084 2.48751 2.75845C3.88117 1.36605 5.77035 0.583144 7.74065 0.581482L204.977 0.581482C206.947 0.583974 208.836 1.36714 210.229 2.75936C211.623 4.15158 212.407 6.03929 212.411 8.00881V56.0083C212.414 60.1007 209.074 63.4277 204.978 63.4277Z" fill="#A6A6A6"/>
<path d="M211.006 56.008C211.006 56.799 210.85 57.5822 210.547 58.3129C210.244 59.0436 209.8 59.7074 209.24 60.2664C208.68 60.8254 208.016 61.2687 207.285 61.5708C206.554 61.8729 205.77 62.028 204.979 62.0271H7.74098C6.14236 62.0288 4.60852 61.3956 3.4768 60.2669C2.34508 59.1381 1.70814 57.6062 1.70605 56.008V8.00696C1.70814 6.40804 2.34483 4.87529 3.47632 3.74528C4.60782 2.61526 6.14163 1.98033 7.74098 1.97992H204.977C205.769 1.97992 206.553 2.13582 207.284 2.43873C208.015 2.74164 208.68 3.18561 209.24 3.74529C209.799 4.30498 210.243 4.96941 210.546 5.70063C210.849 6.43185 211.004 7.21555 211.004 8.00696L211.006 56.008Z" fill="black"/>
<path d="M47.6684 31.6732C47.6228 26.608 51.8169 24.1437 52.0087 24.029C49.6334 20.5668 45.9518 20.0937 44.658 20.056C41.5659 19.7307 38.5665 21.9058 36.9914 21.9058C35.3848 21.9058 32.9592 20.0875 30.3449 20.1409C26.9809 20.1928 23.8337 22.14 22.1076 25.1637C18.5455 31.329 21.2022 40.3892 24.615 45.3727C26.3222 47.815 28.3171 50.5385 30.9282 50.4427C33.4827 50.3389 34.4369 48.8161 37.5196 48.8161C40.574 48.8161 41.47 50.4427 44.133 50.3814C46.8746 50.339 48.6006 47.9297 50.2481 45.467C52.221 42.6712 53.0132 39.9146 53.0447 39.7732C52.9818 39.7512 47.7219 37.7427 47.6684 31.6732ZM42.638 16.7777C44.0119 15.0599 44.952 12.723 44.6911 10.3515C42.7025 10.4395 40.2156 11.7266 38.7835 13.4066C37.5164 14.8871 36.3846 17.3136 36.677 19.5956C38.9108 19.7621 41.2043 18.4687 42.638 16.7777Z" fill="white"/>
<path d="M204.978 0.581299H99.3315L140.711 63.4275H204.978C206.948 63.4259 208.837 62.6434 210.23 61.2517C211.624 59.86 212.408 57.9726 212.412 56.0033V8.00862C212.409 6.03898 211.624 4.15103 210.231 2.75872C208.837 1.36641 206.948 0.583376 204.978 0.581299V0.581299Z" fill="url(#paint0_linear_27_80)"/>
<path d="M84.6683 50.0927H81.0983L79.1427 43.9494H72.3454L70.4825 50.0927H67.0068L73.7429 29.178H77.9024L84.6683 50.0927ZM78.5532 41.372L76.7847 35.9107C76.5976 35.3528 76.2455 34.0389 75.7299 31.9707H75.667C75.4595 32.8602 75.1278 34.1741 74.6735 35.9107L72.9349 41.372H78.5532ZM101.957 42.3668C101.957 44.9316 101.261 46.959 99.8664 48.4472C98.6183 49.7721 97.0667 50.4337 95.2165 50.4337C93.2184 50.4337 91.7816 49.7218 90.9092 48.2948V56.2078H87.5576V39.9685C87.5576 38.3577 87.5152 36.7059 87.4335 35.0117H90.381L90.568 37.4021H90.6309C91.7486 35.6011 93.4448 34.7006 95.7211 34.7006C97.5006 34.7006 98.9861 35.4031 100.175 36.8096C101.361 38.2194 101.957 40.0707 101.957 42.3668ZM98.5428 42.4894C98.5428 41.0215 98.2127 39.8114 97.5493 38.8574C96.8246 37.8657 95.8515 37.3691 94.6317 37.3691C93.8048 37.3691 93.0534 37.6457 92.3821 38.1911C91.7093 38.7411 91.2692 39.4593 91.0632 40.3489C90.9713 40.6815 90.919 41.0239 90.9076 41.3688V43.8849C90.9076 44.9803 91.244 45.906 91.9168 46.6635C92.5896 47.4179 93.4637 47.7966 94.5389 47.7966C95.8012 47.7966 96.7837 47.3078 97.4864 46.3382C98.1907 45.3654 98.5428 44.0829 98.5428 42.4894ZM119.307 42.3668C119.307 44.9316 118.611 46.959 117.217 48.4472C115.967 49.7721 114.417 50.4337 112.565 50.4337C110.567 50.4337 109.13 49.7218 108.258 48.2948V56.2078H104.906V39.9685C104.906 38.3577 104.864 36.7059 104.782 35.0117H107.73L107.917 37.4021H107.98C109.096 35.6011 110.792 34.7006 113.07 34.7006C114.848 34.7006 116.333 35.4031 117.525 36.8096C118.71 38.2194 119.307 40.0707 119.307 42.3668ZM115.891 42.4894C115.891 41.0215 115.56 39.8114 114.896 38.8574C114.172 37.8657 113.202 37.3691 111.982 37.3691C111.155 37.3691 110.404 37.6457 109.729 38.1911C109.056 38.7411 108.618 39.4593 108.412 40.3489C108.31 40.7638 108.255 41.1016 108.255 41.3688V43.8849C108.255 44.9803 108.593 45.906 109.262 46.6635C109.935 47.4163 110.809 47.7966 111.888 47.7966C113.151 47.7966 114.134 47.3078 114.835 46.3382C115.539 45.3654 115.891 44.0829 115.891 42.4894ZM138.706 44.226C138.706 46.0066 138.083 47.454 136.846 48.5714C135.485 49.791 133.584 50.4023 131.148 50.4023C128.897 50.4023 127.092 49.9685 125.731 49.0995L126.506 46.3067C127.975 47.1774 129.59 47.6112 131.347 47.6112C132.611 47.6112 133.594 47.3251 134.295 46.7578C134.998 46.1889 135.353 45.4282 135.353 44.479C135.353 43.6288 135.059 42.9168 134.482 42.3369C133.902 41.7586 132.943 41.2195 131.596 40.7245C127.933 39.3588 126.1 37.3613 126.1 34.7336C126.1 33.0174 126.748 31.6124 128.04 30.5139C129.332 29.4169 131.046 28.8684 133.177 28.8684C135.081 28.8684 136.667 29.2 137.926 29.8617L137.085 32.5931C135.9 31.9519 134.562 31.6313 133.066 31.6313C131.883 31.6313 130.956 31.922 130.293 32.5003C129.735 33.0174 129.452 33.6476 129.452 34.3957C129.452 35.2208 129.774 35.906 130.415 36.4435C130.972 36.9385 131.987 37.4776 133.455 38.0559C135.257 38.782 136.581 39.6275 137.428 40.5987C138.282 41.57 138.706 42.7817 138.706 44.226ZM149.815 37.5263H146.121V44.8483C146.121 46.7106 146.772 47.6395 148.077 47.6395C148.676 47.6395 149.172 47.5892 149.565 47.4839L149.658 50.0283C148.998 50.275 148.129 50.3992 147.052 50.3992C145.728 50.3992 144.694 49.9953 143.947 49.1875C143.203 48.3797 142.829 47.0265 142.829 45.1218V37.52H140.629V35.0055H142.829V32.2442L146.121 31.2509V35.0055H149.815V37.5263ZM166.45 42.4281C166.45 44.7462 165.787 46.6494 164.463 48.1376C163.078 49.6699 161.236 50.4337 158.939 50.4337C156.723 50.4337 154.96 49.6998 153.646 48.2335C152.332 46.7641 151.675 44.9127 151.675 42.6795C151.675 40.3426 152.354 38.4284 153.708 36.9401C155.064 35.4502 156.891 34.7053 159.188 34.7053C161.401 34.7053 163.179 35.4408 164.525 36.9087C165.81 38.3325 166.45 40.1713 166.45 42.4281ZM162.976 42.5051C162.976 41.1236 162.677 39.9387 162.079 38.947C161.376 37.7495 160.37 37.1507 159.067 37.1507C157.724 37.1507 156.694 37.7495 155.993 38.947C155.393 39.9387 155.094 41.1441 155.094 42.5679C155.094 43.9509 155.393 45.1391 155.993 46.1276C156.718 47.3251 157.729 47.9239 159.038 47.9239C160.319 47.9239 161.324 47.3126 162.05 46.0977C162.666 45.0825 162.976 43.8896 162.976 42.5051ZM177.349 37.9585C177 37.8956 176.647 37.8645 176.293 37.8657C175.114 37.8657 174.202 38.3089 173.56 39.2016C173.004 39.9874 172.724 40.9806 172.724 42.1798V50.0927H169.373V39.7611C169.376 38.178 169.343 36.595 169.275 35.0133H172.194L172.317 37.8988H172.41C172.765 36.9071 173.321 36.1071 174.085 35.5084C174.785 34.9852 175.634 34.7018 176.508 34.7006C176.818 34.7006 177.097 34.7226 177.346 34.7619L177.349 37.9585ZM192.338 41.8387C192.347 42.3481 192.305 42.857 192.215 43.3584H182.161C182.199 44.8483 182.686 45.9893 183.62 46.7751C184.467 47.476 185.563 47.828 186.908 47.828C188.397 47.828 189.755 47.5923 190.977 47.1161L191.502 49.4405C190.074 50.0628 188.389 50.3724 186.445 50.3724C184.105 50.3724 182.269 49.6841 180.933 48.3105C179.6 46.9354 178.932 45.0872 178.932 42.7722C178.932 40.4997 179.553 38.606 180.796 37.0957C182.098 35.4832 183.857 34.677 186.07 34.677C188.245 34.677 189.89 35.4832 191.008 37.0957C191.893 38.3734 192.338 39.9575 192.338 41.8387ZM189.142 40.9696C189.166 39.9748 188.946 39.1183 188.491 38.3938C187.911 37.4603 187.018 36.9951 185.822 36.9951C184.726 36.9951 183.833 37.4493 183.154 38.3608C182.596 39.0853 182.265 39.956 182.162 40.9665L189.142 40.9696Z" fill="white"/>
<path d="M71.3786 21.7843C70.4464 21.7843 69.64 21.7387 68.9688 21.6617V11.5501C69.9076 11.4052 70.8563 11.3337 71.8062 11.3364C75.6498 11.3364 77.4198 13.227 77.4198 16.3089C77.4198 19.8638 75.3291 21.7843 71.3786 21.7843ZM71.9414 12.633C71.4226 12.633 70.9809 12.6644 70.6146 12.7398V20.4265C70.8127 20.4579 71.1931 20.472 71.7276 20.472C74.246 20.472 75.6796 19.0388 75.6796 16.3545C75.6796 13.961 74.3827 12.633 71.9414 12.633ZM82.936 21.8613C80.7698 21.8613 79.366 20.2442 79.366 18.0487C79.366 15.7604 80.7996 14.1291 83.0586 14.1291C85.1934 14.1291 86.6286 15.6693 86.6286 17.9276C86.6286 20.2442 85.1494 21.8613 82.936 21.8613ZM82.9989 15.333C81.8089 15.333 81.0465 16.4456 81.0465 18.0015C81.0465 19.5275 81.8246 20.6402 82.9832 20.6402C84.1417 20.6402 84.9199 19.4505 84.9199 17.9701C84.9199 16.4614 84.1575 15.333 82.9989 15.333ZM98.9814 14.2816L96.6627 21.6932H95.152L94.1916 18.4746C93.9527 17.6873 93.7539 16.8884 93.5958 16.081H93.5643C93.4433 16.8888 93.2138 17.6982 92.9701 18.4746L91.9483 21.6932H90.4219L88.2399 14.2816H89.933L90.7724 17.8051C90.9705 18.6443 91.1371 19.4364 91.2755 20.1844H91.3069C91.428 19.5605 91.626 18.781 91.9169 17.8208L92.9701 14.2831H94.3126L95.3203 17.7453C95.5639 18.5846 95.762 19.4081 95.916 20.186H95.9601C96.067 19.4238 96.2352 18.6144 96.4631 17.7453L97.3639 14.2831L98.9814 14.2816ZM107.517 21.6932H105.87V17.4373C105.87 16.1266 105.367 15.4697 104.375 15.4697C103.399 15.4697 102.728 16.3089 102.728 17.2849V21.6932H101.08V16.4001C101.08 15.7447 101.064 15.0422 101.019 14.28H102.468L102.545 15.4241H102.591C103.034 14.632 103.933 14.1291 104.941 14.1291C106.497 14.1291 107.519 15.3188 107.519 17.255L107.517 21.6932ZM112.061 21.6932H110.411V10.8806H112.061V21.6932ZM118.067 21.8613C115.903 21.8613 114.497 20.2442 114.497 18.0487C114.497 15.7604 115.931 14.1291 118.188 14.1291C120.325 14.1291 121.758 15.6693 121.758 17.9276C121.76 20.2442 120.279 21.8613 118.067 21.8613ZM118.128 15.333C116.938 15.333 116.176 16.4456 116.176 18.0015C116.176 19.5275 116.956 20.6402 118.111 20.6402C119.271 20.6402 120.048 19.4505 120.048 17.9701C120.049 16.4614 119.289 15.333 118.128 15.333ZM128.254 21.6932L128.134 20.8398H128.09C127.587 21.5266 126.853 21.8613 125.922 21.8613C124.594 21.8613 123.651 20.931 123.651 19.68C123.651 17.8506 125.237 16.9045 127.983 16.9045V16.7678C127.983 15.7919 127.466 15.3031 126.444 15.3031C125.713 15.3031 125.072 15.487 124.508 15.8531L124.173 14.7703C124.858 14.3429 125.713 14.1291 126.718 14.1291C128.655 14.1291 129.632 15.1507 129.632 17.1953V19.9251C129.632 20.6732 129.665 21.2531 129.739 21.6947L128.254 21.6932ZM128.027 18.0015C126.198 18.0015 125.28 18.4447 125.28 19.4961C125.28 20.274 125.753 20.6544 126.41 20.6544C127.248 20.6544 128.027 20.0147 128.027 19.1456V18.0015ZM137.632 21.6932L137.555 20.5035H137.51C137.037 21.4024 136.241 21.8613 135.13 21.8613C133.342 21.8613 132.019 20.2897 132.019 18.0785C132.019 15.7604 133.391 14.1275 135.265 14.1275C136.257 14.1275 136.959 14.4623 137.356 15.1349H137.389V10.8806H139.038V19.6957C139.038 20.4123 139.055 21.0834 139.099 21.6932H137.632ZM137.389 17.332C137.389 16.2948 136.702 15.41 135.653 15.41C134.432 15.41 133.685 16.4928 133.685 18.0172C133.685 19.5118 134.46 20.5349 135.62 20.5349C136.656 20.5349 137.389 19.6344 137.389 18.5673V17.332ZM149.493 21.8613C147.328 21.8613 145.925 20.2442 145.925 18.0487C145.925 15.7604 147.358 14.1291 149.616 14.1291C151.752 14.1291 153.186 15.6693 153.186 17.9276C153.187 20.2442 151.708 21.8613 149.493 21.8613ZM149.554 15.333C148.366 15.333 147.604 16.4456 147.604 18.0015C147.604 19.5275 148.382 20.6402 149.539 20.6402C150.699 20.6402 151.475 19.4505 151.475 17.9701C151.479 16.4614 150.716 15.333 149.554 15.333ZM162.046 21.6932H160.396V17.4373C160.396 16.1266 159.893 15.4697 158.902 15.4697C157.925 15.4697 157.256 16.3089 157.256 17.2849V21.6932H155.607V16.4001C155.607 15.7447 155.591 15.0422 155.545 14.28H156.995L157.072 15.4241H157.117C157.559 14.632 158.46 14.1275 159.466 14.1275C161.022 14.1275 162.046 15.3172 162.046 17.2534V21.6932ZM173.13 15.5168H171.317V19.1158C171.317 20.032 171.635 20.4893 172.276 20.4893C172.567 20.4893 172.811 20.4579 173.007 20.4123L173.053 21.6633C172.734 21.7859 172.306 21.8472 171.775 21.8472C170.476 21.8472 169.7 21.1305 169.7 19.2541V15.5168H168.618V14.2816H169.7V12.9237L171.317 12.4349V14.28H173.13V15.5168ZM181.851 21.6932H180.205V17.4687C180.205 16.1423 179.704 15.4713 178.71 15.4713C177.857 15.4713 177.061 16.0512 177.061 17.2251V21.6932H175.415V10.8806H177.061V15.333H177.094C177.613 14.5252 178.365 14.1275 179.323 14.1275C180.892 14.1275 181.851 15.3471 181.851 17.2849V21.6932ZM190.786 18.3834H185.843C185.874 19.7868 186.803 20.5789 188.179 20.5789C188.91 20.5789 189.582 20.4563 190.177 20.2285L190.433 21.3726C189.732 21.6775 188.906 21.8299 187.946 21.8299C185.627 21.8299 184.255 20.3652 184.255 18.0942C184.255 15.8217 185.66 14.1134 187.76 14.1134C189.655 14.1134 190.843 15.5168 190.843 17.6369C190.854 17.8871 190.835 18.1377 190.786 18.3834ZM189.276 17.2094C189.276 16.0653 188.699 15.2575 187.646 15.2575C186.699 15.2575 185.951 16.081 185.844 17.2094H189.276Z" fill="white"/>
<defs>
<linearGradient id="paint0_linear_27_80" x1="155.87" y1="63.5944" x2="155.87" y2="-163.059" gradientUnits="userSpaceOnUse">
<stop stop-color="#1A1A1A" stop-opacity="0.1"/>
<stop offset="0.123" stop-color="#212121" stop-opacity="0.151"/>
<stop offset="0.308" stop-color="#353535" stop-opacity="0.227"/>
<stop offset="0.532" stop-color="#575757" stop-opacity="0.318"/>
<stop offset="0.783" stop-color="#858585" stop-opacity="0.421"/>
<stop offset="1" stop-color="#B3B3B3" stop-opacity="0.51"/>
</linearGradient>
</defs>
</svg>
